<svg width="46" height="47" viewBox="0 0 46 47" fill="none" xmlns="http://www.w3.org/2000/svg">
    <path d="M17.7502 18.75H6.43582C2.90475 18.75 0.608147 22.466 2.18729 25.6243L10.4998 42.2493C11.3044 43.8585 12.9491 44.875 14.7483 44.875H24.2904C24.6788 44.875 25.0657 44.8274 25.4424 44.7332L34.3752 42.5M17.7502 18.75V6.875C17.7502 4.25165 19.8768 2.125 22.5002 2.125H22.7269C23.9134 2.125 24.8752 3.0868 24.8752 4.27325C24.8752 5.96972 25.3773 7.62824 26.3183 9.03979L34.3752 21.125V42.5M17.7502 18.75H22.5002M34.3752 42.5H39.1252C41.7485 42.5 43.8752 40.3734 43.8752 37.75V23.5C43.8752 20.8766 41.7485 18.75 39.1252 18.75H33.1877" stroke="white" stroke-width="3" stroke-linecap="round" stroke-linejoin="round"/>
</svg>
